DataType=double
version=3
OpenSimVersion=4.5-2023-11-26-efcdfd3eb
endheader
time	EMG01_right_gast_med	EMG02_right_glut_max	EMG03_left_gast_med	EMG04_left_glut_max	EMG05_right_glut_med	EMG06_right_bic_fem	EMG07_right_rect_fem	EMG08_right_vast_lat	EMG09_right_vast_med	EMG10_right_tens_fasc_lat	EMG11_left_glut_med	EMG12_left_bic_fem	EMG13_left_rect_fem	EMG14_left_vast_lat	EMG15_left_vast_med	EMG16_left_tens_fasc_lat
1.07	5.846185127371473	23.76937595018943	126.3097588696887	17.86295395225192	31.39564828586161	47.3792056328694	2.194694542181502	3.700137508756718	14.91762433575976	20.60948234478052	9.114575005793638	6.242721791913565	6.641283708284297	2.660176452037582	4.312202245639826	52.82356413166762
1.08	7.026701451738228	22.57001870825182	126.2819575156756	16.9478645831049	34.4229671275554	48.31086899885052	2.393133195478845	3.784272852099929	17.18517123373675	19.45329114642561	8.712874204485972	6.307137060971113	6.620895327239767	2.805273062075103	3.714840533333272	48.15652105769983
1.09	8.258096243390684	21.58687665345293	125.736857311415	16.22864722423748	37.97838668015041	49.08006436375695	2.619364090994177	3.913668943652935	19.69965201637275	18.47941670627036	8.323315124962782	6.3512324968067	6.598227052511493	2.995067771158965	3.33842443474596	43.6869959528216
1.1	9.543848888851979	20.82181029802046	124.6662446083629	15.72680033764685	42.0016914560134	49.67936220600851	2.870690248707257	4.085271383799498	22.44497610526807	17.69156164043424	7.946713366311405	6.372664605588768	6.571060522512015	3.22393025502896	3.173146800090896	39.43695179670976
1.11	10.88706578764774	20.27360549579273	123.0684661635575	15.46213795035215	46.42805174035558	50.10324920022387	3.144181383724223	4.295558157684234	25.40196838753695	17.09078938172911	7.583809961137099	6.369610536494725	6.53746171053746	3.486219461777555	3.207735973921131	35.42532809480481
1.12	12.29028043996877	19.93808938199321	120.9486403464926	15.45239483056365	51.18886794820474	50.34813227752398	3.436699981721341	4.54060285973099	28.54854094503232	16.67558706023149	7.235263000375721	6.340778356088161	6.495792286399685	3.776337625707867	3.429591062221635	31.66795093578684
1.13	13.75527298010377	19.80828275136169	118.3187392752659	15.71284343156983	56.21264711052675	50.41231142181223	3.744929110182636	4.816141307833997	31.85990710855847	16.44196136233778	6.901639290159547	6.285408550896265	6.444714139642216	4.088777924656616	3.824914459377315	28.17748625123226
1.14	15.28291316212494	19.87458452208407	115.1975304148146	16.25593007513612	61.42590452996087	50.29592707831381	4.065401762785645	5.1176402253401	35.30883651293389	16.38356523267676	6.583406249176085	6.203267507270984	6.383187740221174	4.418165556346596	4.378841819407838	24.96343566851485
1.15	16.87303050365628	20.12498380601976	111.6103662581002	17.09093792100925	66.75408372052186	50.00088779719339	4.394531571313771	5.440366546444987	38.86594910258314	16.49185295612368	6.28092429092858	6.094633897534552	6.310465107896429	4.759292272340049	5.075569852811336	22.03217390525754
1.16	18.52431486968316	20.54529526160918	107.5888143389385	18.22368428383109	72.12248756672273	49.53078321655545	4.728644851280116	5.779455855189271	42.50004524927036	16.75626080304566	5.994439998188721	5.960278952090531	6.226078173542563	5.107144673481524	5.898482513610487	19.38702614658381
1.17	20.23425021861076	21.11941360472434	103.1701283797327	19.65625979005434	77.45721274193377	48.89078658213916	5.064014099656145	6.12997851191404	46.17846825523522	17.16441011982518	5.724080495957167	5.801441607770997	6.129823281535658	5.456926851297947	6.830276337440203	17.02838318550917
1.18	21.99908354257357	21.82958327243876	98.39657377553657	21.38681661529539	82.68607769202976	48.08754976295612	5.396893139112658	6.48700217809338	49.86749438933774	17.70232954373078	5.469849521376996	5.619799534594113	6.021742548879541	5.804078257749553	7.853085896680484	14.95385142214438
1.19	23.81383022022828	22.65667935857015	93.31463272080603	23.4094125709068	87.73953221699369	47.129092412041	5.723554074790136	6.845649761808818	53.5327441591491	18.35469289526169	5.231625720236697	5.417437028111392	5.902102777369397	6.144287968026169	8.948610532858446	13.15843422877018
1.2	25.67231606538705	23.58049617630497	87.97412159818559	25.71391716614697	92.55153432873742	46.02468569506227	6.040326124379071	7.201152239387139	57.1396069677493	19.1050691803618	5.009163646796216	5.196810688772604	5.771372597120252	6.473506693365215	10.0982436790033	11.63474072048916
1.21	27.56725531368798	24.58004010146002	82.42725465988926	28.28598499089928	97.0603781549422	44.78472985857323	6.343636227658934	7.548896247722585	60.65367009374024	19.93618101029853	4.802097825353637	4.960713708951926	5.630198499501137	6.787957933150111	11.28320614281199	10.37321763975488
1.22	29.49036269895075	25.633823555473	76.72768587417008	31.10710082442414	101.2094557866283	43.42062396504451	6.630051163536471	7.884466696826394	64.04114242587478	20.8301677032117	4.609950084357197	4.712239471395774	5.47938039951081	7.084149522610766	12.48468462471051	9.362399902028612
1.23	31.43249671203114	26.72015704354977	70.9295576079188	34.15469977389533	104.9479363750899	41.94462584116822	6.896320737046606	8.20368489564893	67.26926376200447	21.7688493809388	4.432140221832849	4.454745027322935	5.3198473490633	7.358886583425641	13.68397646504035	8.589175349125789
1.24	33.38383013617287	27.8174361538156	65.08658139890592	37.40236452805104	108.2313470332594	40.36970112578589	7.13942146146346	8.502642807285236	70.30669202830725	22.73398838809186	4.267999919293453	4.191814868625743	5.15263399612792	7.609286573825604	14.86264117973976	8.039059335186739
1.25	35.33404296982613	28.90442039709911	59.25117233640061	40.82010052444449	111.022041810936	38.70936212854517	7.356600027750899	8.777734071460864	73.12386365450079	23.70754426352417	4.11678970893224	3.92722525819895	4.978858337866805	7.832796810392207	16.00265882807652	7.696474837784898
1.26	37.27253189783259	29.96050066335071	53.47365456905385	44.37468847366682	113.2895477929132	36.97749923307428	7.545415701452215	9.025682402419573	75.69332579697426	24.67191839762252	3.977718727036462	3.664909253963933	4.799701236677	8.02721454299307	17.08659474723693	7.545033811082051
1.27	39.18862977345615	30.96595189012724	47.80155149778011	48.03011223644074	115.010782026319	35.18820898348359	7.703780635165329	9.243567904602299	77.99004151509928	25.61018454839618	3.849966936181883	3.408922445951552	4.616388068350436	8.190709435442997	18.09776974780132	7.567815500253879
1.28	41.0718284489118	31.90216745767282	42.27897052528536	51.7480585108155	116.1701390967659	33.35562344776592	7.829996981957268	9.428851704563604	79.99166927434678	26.50630158295985	3.732709433499872	3.16340930118199	4.430172777160278	8.321848122234153	19.02043448524473	7.747637473268783
1.29	42.91199890493808	32.75187200943626	36.9460888770216	55.48848313367618	116.759455320087	31.49374510215217	7.922789681926465	9.579399045838374	81.67881664780845	27.34530516136299	3.625142367523075	2.932569882167033	4.242324515988304	8.419620336026487	19.83994632468866	8.067315282701252
1.3	44.69960382159308	33.49930979071757	31.83874395788247	59.21023690336968	116.7778604776069	29.61629071520479	7.981333892178338	9.693500685223027	83.03526609385264	28.11347571089286	3.526509878582811	2.720626601501485	4.054116913868062	8.483465922057405	20.542946509299	8.509906990745872
1.31	46.42589898747379	34.13040608247073	26.9881289656078	62.87174153253753	116.2315311236055	27.73654687342643	8.005276253092543	9.769892161096939	84.04816933020481	28.79848108918846	3.436131381752531	2.531790618676693	3.866819831836097	8.513301900717535	21.11753482129101	9.058939229881569
1.32	48.08312058632299	34.63289997873478	22.42059206764513	66.43170363775999	115.1333605483687	25.86723899340688	7.994749518794896	9.807770308828966	84.70820653734626	29.38949367272647	3.353428445867288	2.370227469612475	3.681693287488733	8.509548609509219	21.55343829478583	9.698611986135035
1.33	49.66465514728909	34.99644775352677	18.15753537311005	69.84985178392323	113.5025599220092	24.02041490627947	7.950380444457427	9.806806200188294	85.00970706014628	29.87728279324951	3.277950504062604	2.24002152831916	3.499983113468968	8.473153803371359	21.84217007326277	10.41397988850561
1.34	51.16518823619015	35.21269718354259	14.21540818848317	73.08767892904723	111.364203838236	22.20734348548384	7.873291079524103	9.767153407670433	84.95072877315648	30.25428409806828	3.209398666853019	2.14513893333488	3.322917895302957	8.405613370308942	21.97717432748972	11.1911084238263
1.35	52.58082738839177	35.27533405431699	10.60578761515824	76.10917058504567	108.7487323041588	20.43842847958877	7.765093675909919	9.689450212304873	84.53309347959174	30.51464749184158	3.147646981883111	2.089388684268775	3.151706780676809	8.308987018384823	21.95395324146685	12.01720407546136
1.36	53.90919440815904	35.18010258896636	7.33553840470349	78.88149780871059	105.6914206981588	18.72313766507902	7.627879325086716	9.574814310886817	83.76237548314906	30.65426500103278	3.092760569677572	2.076381731748481	2.987537812376265	8.185906950705894	21.77017235312571	12.88071789627889
1.37	55.1494818668424	34.92480184661293	4.407043115964905	81.37565373667957	102.2318291291292	17.06994740663488	7.464200318111649	9.424828920297793	82.64783969671551	30.67077938654439	3.04501014847952	2.109488024768129	2.831576485261969	8.03957727536395	21.42574103691069	13.77142252922552
1.38	56.30246869171877	34.50926024450536	1.818492997550279	83.56701288654733	98.4132422408248	15.48630257373787	7.277046175699137	9.241519865989877	81.20232487888492	30.5635737902284	3.004882536046036	2.191791607903835	2.684964263248215	7.873761864852467	20.92286568588912	14.68046314739435
1.39	57.37049043193872	33.93529018007612	-0.4357703731958226	85.43579403482944	94.2821094651276	13.97859159703522	7.069813318428387	9.027324036122172	79.4420681968665	30.33374222989005	2.973086767563825	2.326043978778051	2.54881681635254	7.69275872622364	20.26607404338833	15.600383096735
1.4	58.35736085859913	33.20662441589727	-2.364872831628022	86.96740990048588	89.88749436285705	12.55213632533311	6.846268401167121	8.785050251075468	77.38647025054028	29.98404037404719	2.95055549280178	2.514616082011243	2.424221762002577	7.501359682174523	19.46220994478821	16.52512521880602
1.41	59.26824262194503	32.32883571240169	-3.980994821097006	88.15268978733357	85.28054018845829	11.21119620776222	6.610505422759593	8.517833999553474	75.05780416727296	29.51881583116658	2.938441339547308	2.759449581173014	2.312235742634527	7.304795148720719	18.52039845016709	17.45001007692383
1.42	60.10946601511774	31.30924115994116	-5.298937841619641	88.98796530271098	80.51395690606527	9.958986125678225	6.366896842401455	8.229087592920415	72.48087637847348	28.94391738385756	2.938107992767729	3.0620083813205	2.213880750508417	7.10866479681933	17.45198202161387	18.37169267640741
1.43	60.88829715002004	30.15679259419742	-6.335679510852048	89.47501518691848	75.64153258358613	8.797706972215465	6.120039034406872	7.922447193432097	69.68264891809285	28.26658327188147	2.951115852397484	3.423231670311882	2.130139698688943	6.918855720738097	16.27042890255718	19.28809964078017
